<?xml version="1.0" encoding="UTF-8" standalone="no"?>
<!DOCTYPE svg PUBLIC "-//W3C//DTD SVG 1.1//EN"
 "http://www.w3.org/Graphics/SVG/1.1/DTD/svg11.dtd">
<!-- Generated by graphviz version 14.1.3 (20260303.0454)
 -->
<!-- Title: My First Diagram Pages: 1 -->
<svg width="95pt" height="163pt"
 viewBox="0.00 0.00 95.00 163.00" xmlns="http://www.w3.org/2000/svg" xmlns:xlink="http://www.w3.org/1999/xlink">
<g id="graph0" class="graph" transform="scale(1 1) rotate(0) translate(3.6 159.6)">
<title>My First Diagram</title>
<polygon fill="white" stroke="none" points="-3.6,3.6 -3.6,-159.6 91.82,-159.6 91.82,3.6 -3.6,3.6"/>
<text xml:space="preserve" text-anchor="middle" x="44.11" y="-7" font-family="Sans-Serif" font-size="10.00">My First Diagram</text>
<!-- mo069qmn_09hmcxr9q -->
<g id="node1" class="node">
<title>mo069qmn_09hmcxr9q</title>
<path fill="none" stroke="black" d="M59.11,-156C59.11,-156 29.11,-156 29.11,-156 23.11,-156 17.11,-150 17.11,-144 17.11,-144 17.11,-132 17.11,-132 17.11,-126 23.11,-120 29.11,-120 29.11,-120 59.11,-120 59.11,-120 65.11,-120 71.11,-126 71.11,-132 71.11,-132 71.11,-144 71.11,-144 71.11,-150 65.11,-156 59.11,-156"/>
<text xml:space="preserve" text-anchor="middle" x="44.11" y="-135.6" font-family="Sans-Serif" font-size="8.00">Web Server</text>
</g>
<!-- mo069qmn_55dg3hbwa -->
<g id="node2" class="node">
<title>mo069qmn_55dg3hbwa</title>
<path fill="none" stroke="black" d="M59.11,-106C59.11,-106 29.11,-106 29.11,-106 23.11,-106 17.11,-100 17.11,-94 17.11,-94 17.11,-82 17.11,-82 17.11,-76 23.11,-70 29.11,-70 29.11,-70 59.11,-70 59.11,-70 65.11,-70 71.11,-76 71.11,-82 71.11,-82 71.11,-94 71.11,-94 71.11,-100 65.11,-106 59.11,-106"/>
<text xml:space="preserve" text-anchor="middle" x="44.11" y="-85.6" font-family="Sans-Serif" font-size="8.00">App Server</text>
</g>
<!-- mo069qmn_09hmcxr9q&#45;&gt;mo069qmn_55dg3hbwa -->
<g id="edge1" class="edge">
<title>mo069qmn_09hmcxr9q&#45;&gt;mo069qmn_55dg3hbwa</title>
<path fill="none" stroke="#7b8894" d="M44.11,-119.67C44.11,-119.67 44.11,-112.85 44.11,-112.85"/>
<polygon fill="#7b8894" stroke="#7b8894" points="45.86,-112.85 44.11,-107.85 42.36,-112.85 45.86,-112.85"/>
</g>
<!-- mo069qmn_no9cvs3kx -->
<g id="node3" class="node">
<title>mo069qmn_no9cvs3kx</title>
<path fill="none" stroke="black" d="M59.11,-56C59.11,-56 29.11,-56 29.11,-56 23.11,-56 17.11,-50 17.11,-44 17.11,-44 17.11,-32 17.11,-32 17.11,-26 23.11,-20 29.11,-20 29.11,-20 59.11,-20 59.11,-20 65.11,-20 71.11,-26 71.11,-32 71.11,-32 71.11,-44 71.11,-44 71.11,-50 65.11,-56 59.11,-56"/>
<text xml:space="preserve" text-anchor="middle" x="44.11" y="-35.6" font-family="Sans-Serif" font-size="8.00">Database</text>
</g>
<!-- mo069qmn_55dg3hbwa&#45;&gt;mo069qmn_no9cvs3kx -->
<g id="edge2" class="edge">
<title>mo069qmn_55dg3hbwa&#45;&gt;mo069qmn_no9cvs3kx</title>
<path fill="none" stroke="#7b8894" d="M44.11,-69.67C44.11,-69.67 44.11,-62.85 44.11,-62.85"/>
<polygon fill="#7b8894" stroke="#7b8894" points="45.86,-62.85 44.11,-57.85 42.36,-62.85 45.86,-62.85"/>
</g>
</g>
</svg>
