<?xml version="1.0" encoding="UTF-8" standalone="no"?>
<!DOCTYPE svg PUBLIC "-//W3C//DTD SVG 1.1//EN"
 "http://www.w3.org/Graphics/SVG/1.1/DTD/svg11.dtd">
<!-- Generated by graphviz version 14.1.3 (20260303.0454)
 -->
<!-- Title: My First Diagram Pages: 1 -->
<svg width="110pt" height="166pt"
 viewBox="0.00 0.00 110.00 166.00" xmlns="http://www.w3.org/2000/svg" xmlns:xlink="http://www.w3.org/1999/xlink">
<g id="graph0" class="graph" transform="scale(1 1) rotate(0) translate(3.6 162)">
<title>My First Diagram</title>
<polygon fill="white" stroke="none" points="-3.6,3.6 -3.6,-162 106.26,-162 106.26,3.6 -3.6,3.6"/>
<text xml:space="preserve" text-anchor="middle" x="51.33" y="-7.6" font-family="Sans-Serif" font-size="12.00">My First Diagram</text>
<!-- mnnglihp_jkb0yceql -->
<g id="node1" class="node">
<title>mnnglihp_jkb0yceql</title>
<path fill="none" stroke="black" d="M71.07,-158.4C71.07,-158.4 31.59,-158.4 31.59,-158.4 25.59,-158.4 19.59,-152.4 19.59,-146.4 19.59,-146.4 19.59,-134.4 19.59,-134.4 19.59,-128.4 25.59,-122.4 31.59,-122.4 31.59,-122.4 71.07,-122.4 71.07,-122.4 77.07,-122.4 83.07,-128.4 83.07,-134.4 83.07,-134.4 83.07,-146.4 83.07,-146.4 83.07,-152.4 77.07,-158.4 71.07,-158.4"/>
<text xml:space="preserve" text-anchor="middle" x="51.33" y="-137.4" font-family="Sans-Serif" font-size="10.00">Web Server</text>
</g>
<!-- mnnglihp_ulu0t0xj1 -->
<g id="node2" class="node">
<title>mnnglihp_ulu0t0xj1</title>
<path fill="none" stroke="black" d="M70.24,-108.4C70.24,-108.4 32.42,-108.4 32.42,-108.4 26.42,-108.4 20.42,-102.4 20.42,-96.4 20.42,-96.4 20.42,-84.4 20.42,-84.4 20.42,-78.4 26.42,-72.4 32.42,-72.4 32.42,-72.4 70.24,-72.4 70.24,-72.4 76.24,-72.4 82.24,-78.4 82.24,-84.4 82.24,-84.4 82.24,-96.4 82.24,-96.4 82.24,-102.4 76.24,-108.4 70.24,-108.4"/>
<text xml:space="preserve" text-anchor="middle" x="51.33" y="-87.4" font-family="Sans-Serif" font-size="10.00">App Server</text>
</g>
<!-- mnnglihp_jkb0yceql&#45;&gt;mnnglihp_ulu0t0xj1 -->
<g id="edge1" class="edge">
<title>mnnglihp_jkb0yceql&#45;&gt;mnnglihp_ulu0t0xj1</title>
<path fill="none" stroke="#7b8894" d="M51.33,-122.07C51.33,-122.07 51.33,-115.25 51.33,-115.25"/>
<polygon fill="#7b8894" stroke="#7b8894" points="53.08,-115.25 51.33,-110.25 49.58,-115.25 53.08,-115.25"/>
</g>
<!-- mnnglihp_w32xcvnd4 -->
<g id="node3" class="node">
<title>mnnglihp_w32xcvnd4</title>
<path fill="none" stroke="black" d="M66.33,-58.4C66.33,-58.4 36.33,-58.4 36.33,-58.4 30.33,-58.4 24.33,-52.4 24.33,-46.4 24.33,-46.4 24.33,-34.4 24.33,-34.4 24.33,-28.4 30.33,-22.4 36.33,-22.4 36.33,-22.4 66.33,-22.4 66.33,-22.4 72.33,-22.4 78.33,-28.4 78.33,-34.4 78.33,-34.4 78.33,-46.4 78.33,-46.4 78.33,-52.4 72.33,-58.4 66.33,-58.4"/>
<text xml:space="preserve" text-anchor="middle" x="51.33" y="-37.4" font-family="Sans-Serif" font-size="10.00">Database</text>
</g>
<!-- mnnglihp_ulu0t0xj1&#45;&gt;mnnglihp_w32xcvnd4 -->
<g id="edge2" class="edge">
<title>mnnglihp_ulu0t0xj1&#45;&gt;mnnglihp_w32xcvnd4</title>
<path fill="none" stroke="#7b8894" d="M51.33,-72.07C51.33,-72.07 51.33,-65.25 51.33,-65.25"/>
<polygon fill="#7b8894" stroke="#7b8894" points="53.08,-65.25 51.33,-60.25 49.58,-65.25 53.08,-65.25"/>
</g>
</g>
</svg>
